<svg width="102" height="107" viewBox="0 0 102 107" fill="none" xmlns="http://www.w3.org/2000/svg">
<g filter="url(#filter0_d_7_15)">
<ellipse cx="40.3636" cy="49.4156" rx="36.3636" ry="36.4805" fill="#A684EB"/>
</g>
<circle cx="40.3637" cy="51.907" r="13.6364" fill="#D9D9D9"/>
<ellipse cx="69.9091" cy="28.8954" rx="6.81818" ry="6.84009" fill="#FF7A18"/>
<line x1="1" y1="-1" x2="17.233" y2="-1" transform="matrix(0.350137 -0.936698 0.935958 0.352112 76.7273 17.4952)" stroke="#FF7A18" stroke-width="2" stroke-linecap="round"/>
<line x1="84.5455" y1="34.7355" x2="100.727" y2="34.7355" stroke="#FF7A18" stroke-width="2" stroke-linecap="round"/>
<line x1="1" y1="-1" x2="17.1982" y2="-1" transform="matrix(0.847233 -0.531222 0.528777 0.848761 83.5455 24.3353)" stroke="#FF7A18" stroke-width="2" stroke-linecap="round"/>
<path d="M41.1387 105.466C40.7385 105.957 39.9887 105.957 39.5886 105.466L8.23404 67.0077C7.70146 66.3545 8.16628 65.3759 9.00909 65.3759H71.7182C72.561 65.3759 73.0258 66.3545 72.4932 67.0078L41.1387 105.466Z" fill="#A684EB"/>
<defs>
<filter id="filter0_d_7_15" x="0" y="12.9352" width="80.7273" height="80.9609" filterUnits="userSpaceOnUse" color-interpolation-filters="sRGB">
<feFlood flood-opacity="0" result="BackgroundImageFix"/>
<feColorMatrix in="SourceAlpha" type="matrix" values="0 0 0 0 0 0 0 0 0 0 0 0 0 0 0 0 0 0 127 0" result="hardAlpha"/>
<feOffset dy="4"/>
<feGaussianBlur stdDeviation="2"/>
<feComposite in2="hardAlpha" operator="out"/>
<feColorMatrix type="matrix" values="0 0 0 0 0 0 0 0 0 0 0 0 0 0 0 0 0 0 0.25 0"/>
<feBlend mode="normal" in2="BackgroundImageFix" result="effect1_dropShadow_7_15"/>
<feBlend mode="normal" in="SourceGraphic" in2="effect1_dropShadow_7_15" result="shape"/>
</filter>
</defs>
</svg>
