<svg width="442" height="107" viewBox="0 0 442 107" fill="none" xmlns="http://www.w3.org/2000/svg">
<path d="M137.951 48.576V45.568H157.023V48.576L151.711 49.152C151.669 51.7973 151.626 54.4853 151.583 57.216C151.583 59.904 151.583 62.6347 151.583 65.408V68.16C151.583 70.848 151.583 73.5573 151.583 76.288C151.626 78.976 151.669 81.6853 151.711 84.416L157.023 84.992V88H137.951V84.992L143.135 84.416C143.221 81.728 143.263 78.9973 143.263 76.224C143.263 73.4507 143.263 70.6773 143.263 67.904H125.919C125.919 70.976 125.919 73.856 125.919 76.544C125.962 79.232 126.005 81.856 126.047 84.416L131.295 84.992V88H112.223V84.992L117.535 84.416C117.621 81.7707 117.663 79.0827 117.663 76.352C117.663 73.6213 117.663 70.8907 117.663 68.16V65.408C117.663 62.72 117.663 60.032 117.663 57.344C117.663 54.6133 117.621 51.8827 117.535 49.152L112.223 48.576V45.568H131.295V48.576L126.047 49.152C126.005 51.7973 125.962 54.4427 125.919 57.088C125.919 59.7333 125.919 62.2293 125.919 64.576H143.263C143.263 61.9307 143.263 59.328 143.263 56.768C143.263 54.208 143.221 51.6693 143.135 49.152L137.951 48.576ZM184.85 88.768C183.143 88.768 181.756 88.3413 180.69 87.488C179.623 86.6347 178.898 85.4613 178.514 83.968C176.935 85.5893 175.506 86.8267 174.226 87.68C172.946 88.4907 171.282 88.896 169.234 88.896C166.844 88.896 164.818 88.2133 163.154 86.848C161.532 85.44 160.722 83.4347 160.722 80.832C160.722 79.4667 161.042 78.208 161.682 77.056C162.322 75.8613 163.452 74.752 165.074 73.728C166.738 72.704 169.106 71.7013 172.178 70.72C173.031 70.4213 173.991 70.1227 175.058 69.824C176.124 69.5253 177.212 69.2267 178.322 68.928V67.136C178.322 64.1493 177.895 62.144 177.042 61.12C176.231 60.0533 174.78 59.52 172.69 59.52C172.306 59.52 171.879 59.5413 171.41 59.584C170.983 59.6267 170.535 59.6907 170.066 59.776L169.298 63.296C169.127 64.832 168.679 65.9627 167.954 66.688C167.228 67.4133 166.332 67.776 165.266 67.776C163.218 67.776 162.023 66.816 161.682 64.896C162.066 62.336 163.431 60.288 165.778 58.752C168.167 57.216 171.303 56.448 175.186 56.448C178.898 56.448 181.607 57.344 183.314 59.136C185.02 60.8853 185.874 63.8507 185.874 68.032V81.984C185.874 83.904 186.492 84.864 187.73 84.864C188.54 84.864 189.287 84.3947 189.97 83.456L191.442 84.736C190.674 86.1867 189.756 87.232 188.69 87.872C187.666 88.4693 186.386 88.768 184.85 88.768ZM168.21 79.488C168.21 81.152 168.636 82.368 169.49 83.136C170.386 83.8613 171.474 84.224 172.754 84.224C173.479 84.224 174.204 84.0533 174.93 83.712C175.655 83.3707 176.786 82.6667 178.322 81.6V71.488C177.426 71.7867 176.572 72.064 175.762 72.32C174.994 72.576 174.332 72.8107 173.778 73.024C171.644 73.8773 170.172 74.8587 169.362 75.968C168.594 77.0773 168.21 78.2507 168.21 79.488ZM192.338 102.912V100.288L196.69 99.456C196.732 97.5787 196.754 95.7653 196.754 94.016C196.796 92.3093 196.818 90.6453 196.818 89.024V71.168C196.818 69.4187 196.796 68.032 196.754 67.008C196.754 65.9413 196.711 64.768 196.626 63.488L192.146 62.912V60.48L202.77 56.448L203.794 57.088L204.114 60.992C207.015 57.9627 210.215 56.448 213.714 56.448C216.018 56.448 218.108 57.088 219.986 58.368C221.863 59.6053 223.335 61.4187 224.402 63.808C225.511 66.1973 226.066 69.0987 226.066 72.512C226.066 75.8827 225.447 78.8053 224.21 81.28C223.015 83.712 221.415 85.5893 219.41 86.912C217.404 88.2347 215.164 88.896 212.69 88.896C211.111 88.896 209.639 88.5973 208.274 88C206.908 87.4027 205.607 86.4427 204.37 85.12V88.96C204.37 90.5387 204.37 92.1813 204.37 93.888C204.412 95.6373 204.455 97.4507 204.498 99.328L209.49 100.288V102.912H192.338ZM210.706 60.992C209.724 60.992 208.722 61.248 207.698 61.76C206.716 62.272 205.671 62.9547 204.562 63.808V81.92C206.354 83.584 208.252 84.416 210.258 84.416C212.391 84.416 214.183 83.4987 215.634 81.664C217.127 79.7867 217.874 76.864 217.874 72.896C217.874 68.9707 217.212 66.0053 215.89 64C214.567 61.9947 212.839 60.992 210.706 60.992ZM229.838 102.912V100.288L234.19 99.456C234.232 97.5787 234.254 95.7653 234.254 94.016C234.296 92.3093 234.318 90.6453 234.318 89.024V71.168C234.318 69.4187 234.296 68.032 234.254 67.008C234.254 65.9413 234.211 64.768 234.126 63.488L229.646 62.912V60.48L240.27 56.448L241.294 57.088L241.614 60.992C244.515 57.9627 247.715 56.448 251.214 56.448C253.518 56.448 255.608 57.088 257.486 58.368C259.363 59.6053 260.835 61.4187 261.902 63.808C263.011 66.1973 263.566 69.0987 263.566 72.512C263.566 75.8827 262.947 78.8053 261.71 81.28C260.515 83.712 258.915 85.5893 256.91 86.912C254.904 88.2347 252.664 88.896 250.19 88.896C248.611 88.896 247.139 88.5973 245.774 88C244.408 87.4027 243.107 86.4427 241.87 85.12V88.96C241.87 90.5387 241.87 92.1813 241.87 93.888C241.912 95.6373 241.955 97.4507 241.998 99.328L246.99 100.288V102.912H229.838ZM248.206 60.992C247.224 60.992 246.222 61.248 245.198 61.76C244.216 62.272 243.171 62.9547 242.062 63.808V81.92C243.854 83.584 245.752 84.416 247.758 84.416C249.891 84.416 251.683 83.4987 253.134 81.664C254.627 79.7867 255.374 76.864 255.374 72.896C255.374 68.9707 254.712 66.0053 253.39 64C252.067 61.9947 250.339 60.992 248.206 60.992ZM283.637 59.52C282.613 59.52 281.589 59.8613 280.565 60.544C279.583 61.184 278.73 62.2507 278.005 63.744C277.322 65.2373 276.895 67.264 276.725 69.824H285.493C287.029 69.824 288.053 69.504 288.565 68.864C289.077 68.224 289.333 67.328 289.333 66.176C289.333 64.2133 288.778 62.6133 287.669 61.376C286.559 60.1387 285.215 59.52 283.637 59.52ZM283.637 88.896C280.65 88.896 278.026 88.256 275.765 86.976C273.503 85.696 271.733 83.8613 270.453 81.472C269.173 79.04 268.533 76.16 268.533 72.832C268.533 69.4187 269.258 66.496 270.709 64.064C272.202 61.5893 274.122 59.712 276.469 58.432C278.858 57.1093 281.397 56.448 284.085 56.448C286.602 56.448 288.799 56.9813 290.677 58.048C292.554 59.1147 294.005 60.608 295.029 62.528C296.095 64.448 296.629 66.7093 296.629 69.312C296.629 70.6773 296.501 71.8507 296.245 72.832H276.661C276.831 76.5013 277.791 79.2533 279.541 81.088C281.333 82.9227 283.573 83.84 286.261 83.84C288.138 83.84 289.717 83.4773 290.997 82.752C292.319 81.984 293.514 81.0027 294.581 79.808L296.437 81.472C295.199 83.8187 293.493 85.6533 291.317 86.976C289.183 88.256 286.623 88.896 283.637 88.896ZM301.278 88V85.376L305.438 84.544C305.481 82.9653 305.502 81.2587 305.502 79.424C305.502 77.5467 305.502 75.9253 305.502 74.56V71.168C305.502 69.4187 305.481 68.032 305.438 67.008C305.438 65.9413 305.396 64.768 305.31 63.488L300.83 62.912V60.48L311.518 56.448L312.542 57.088L312.99 62.016C316.276 58.304 319.902 56.448 323.87 56.448C326.644 56.448 328.777 57.3653 330.27 59.2C331.806 61.0347 332.574 63.936 332.574 67.904V74.56C332.574 76.0107 332.574 77.6533 332.574 79.488C332.574 81.3227 332.596 83.0293 332.638 84.608L336.542 85.376V88H320.734V85.376L324.83 84.544C324.873 82.9653 324.894 81.28 324.894 79.488C324.894 77.6533 324.894 76.0107 324.894 74.56V68.48C324.894 65.9627 324.553 64.2347 323.87 63.296C323.188 62.3147 322.036 61.824 320.414 61.824C318.153 61.824 315.764 62.8693 313.246 64.96V74.56C313.246 75.968 313.246 77.5893 313.246 79.424C313.246 81.2587 313.268 82.9867 313.31 84.608L317.086 85.376V88H301.278ZM340.275 88V85.376L344.499 84.544C344.542 82.9653 344.563 81.2587 344.563 79.424C344.563 77.5467 344.563 75.9253 344.563 74.56V71.552C344.563 69.8027 344.542 68.352 344.499 67.2C344.499 66.0053 344.457 64.768 344.371 63.488L339.827 62.912V60.48L351.347 56.448L352.371 57.088L352.179 66.112V74.56C352.179 75.9253 352.179 77.5467 352.179 79.424C352.179 81.2587 352.201 82.9867 352.243 84.608L356.147 85.376V88H340.275ZM348.339 50.496C346.974 50.496 345.822 50.0693 344.883 49.216C343.945 48.3627 343.475 47.2747 343.475 45.952C343.475 44.5867 343.945 43.4773 344.883 42.624C345.822 41.7707 346.974 41.344 348.339 41.344C349.705 41.344 350.835 41.7707 351.731 42.624C352.67 43.4773 353.139 44.5867 353.139 45.952C353.139 47.2747 352.67 48.3627 351.731 49.216C350.835 50.0693 349.705 50.496 348.339 50.496ZM360.028 88V85.376L364.188 84.544C364.231 82.9653 364.252 81.2587 364.252 79.424C364.252 77.5467 364.252 75.9253 364.252 74.56V71.168C364.252 69.4187 364.231 68.032 364.188 67.008C364.188 65.9413 364.146 64.768 364.06 63.488L359.58 62.912V60.48L370.268 56.448L371.292 57.088L371.74 62.016C375.026 58.304 378.652 56.448 382.62 56.448C385.394 56.448 387.527 57.3653 389.02 59.2C390.556 61.0347 391.324 63.936 391.324 67.904V74.56C391.324 76.0107 391.324 77.6533 391.324 79.488C391.324 81.3227 391.346 83.0293 391.388 84.608L395.292 85.376V88H379.484V85.376L383.58 84.544C383.623 82.9653 383.644 81.28 383.644 79.488C383.644 77.6533 383.644 76.0107 383.644 74.56V68.48C383.644 65.9627 383.303 64.2347 382.62 63.296C381.938 62.3147 380.786 61.824 379.164 61.824C376.903 61.824 374.514 62.8693 371.996 64.96V74.56C371.996 75.968 371.996 77.5893 371.996 79.424C371.996 81.2587 372.018 82.9867 372.06 84.608L375.836 85.376V88H360.028ZM412.401 74.432C414.193 74.432 415.559 73.728 416.497 72.32C417.436 70.912 417.905 69.0347 417.905 66.688C417.905 64.4267 417.436 62.6347 416.497 61.312C415.601 59.9467 414.3 59.264 412.593 59.264C410.887 59.264 409.543 59.968 408.561 61.376C407.623 62.7413 407.153 64.576 407.153 66.88C407.153 69.184 407.601 71.0187 408.497 72.384C409.393 73.7493 410.695 74.432 412.401 74.432ZM404.337 93.952C404.337 95.9147 405.063 97.344 406.513 98.24C407.964 99.136 410.033 99.584 412.721 99.584C416.092 99.584 418.631 99.0293 420.337 97.92C422.087 96.8107 422.961 95.4667 422.961 93.888C422.961 92.6933 422.535 91.6693 421.681 90.816C420.871 89.9627 419.441 89.536 417.393 89.536H410.289C408.711 89.536 407.303 89.408 406.065 89.152C404.913 90.688 404.337 92.288 404.337 93.952ZM412.529 77.248C410.609 77.248 408.839 77.0133 407.217 76.544C406.407 77.6533 406.001 78.8267 406.001 80.064C406.001 80.8747 406.257 81.5147 406.769 81.984C407.324 82.4533 408.305 82.688 409.713 82.688H417.713C421.895 82.688 424.881 83.4773 426.673 85.056C428.465 86.6347 429.361 88.768 429.361 91.456C429.361 93.4613 428.7 95.3387 427.377 97.088C426.097 98.8373 424.177 100.245 421.617 101.312C419.1 102.379 415.943 102.912 412.145 102.912C408.86 102.912 406.215 102.571 404.209 101.888C402.247 101.205 400.817 100.288 399.921 99.136C399.068 97.984 398.641 96.704 398.641 95.296C398.641 93.9307 399.089 92.672 399.985 91.52C400.881 90.4107 402.353 89.3653 404.401 88.384C403.079 87.9147 402.097 87.2533 401.457 86.4C400.817 85.504 400.497 84.48 400.497 83.328C400.497 82.0907 400.86 80.8747 401.585 79.68C402.353 78.4427 403.527 77.0987 405.105 75.648C401.735 73.9413 400.049 71.0187 400.049 66.88C400.049 63.7227 401.159 61.2053 403.377 59.328C405.596 57.408 408.647 56.448 412.529 56.448C416.412 56.448 419.441 57.344 421.617 59.136L428.849 56.384L429.809 57.024V61.504H423.601C424.497 62.9547 424.945 64.7467 424.945 66.88C424.945 69.9947 423.857 72.512 421.681 74.432C419.505 76.3093 416.455 77.248 412.529 77.248Z" fill="black"/>
<g filter="url(#filter0_d_7_17)">
<ellipse cx="40.3636" cy="49.9993" rx="36.3636" ry="36.4805" fill="#A684EB"/>
</g>
<circle cx="40.3637" cy="52.4906" r="13.6364" fill="#D9D9D9"/>
<ellipse cx="69.9091" cy="29.479" rx="6.81818" ry="6.84009" fill="#FF7A18"/>
<line x1="1" y1="-1" x2="17.233" y2="-1" transform="matrix(0.350137 -0.936698 0.935958 0.352112 76.7273 18.0789)" stroke="#FF7A18" stroke-width="2" stroke-linecap="round"/>
<line x1="84.5455" y1="35.3191" x2="100.727" y2="35.3191" stroke="#FF7A18" stroke-width="2" stroke-linecap="round"/>
<line x1="1" y1="-1" x2="17.1982" y2="-1" transform="matrix(0.847233 -0.531222 0.528777 0.848761 83.5455 24.9189)" stroke="#FF7A18" stroke-width="2" stroke-linecap="round"/>
<path d="M41.1387 106.049C40.7385 106.54 39.9887 106.54 39.5886 106.049L8.23404 67.5914C7.70146 66.9381 8.16628 65.9595 9.00909 65.9595H71.7182C72.561 65.9595 73.0258 66.9381 72.4932 67.5914L41.1387 106.049Z" fill="#A684EB"/>
<defs>
<filter id="filter0_d_7_17" x="0" y="13.5188" width="80.7273" height="80.9609" filterUnits="userSpaceOnUse" color-interpolation-filters="sRGB">
<feFlood flood-opacity="0" result="BackgroundImageFix"/>
<feColorMatrix in="SourceAlpha" type="matrix" values="0 0 0 0 0 0 0 0 0 0 0 0 0 0 0 0 0 0 127 0" result="hardAlpha"/>
<feOffset dy="4"/>
<feGaussianBlur stdDeviation="2"/>
<feComposite in2="hardAlpha" operator="out"/>
<feColorMatrix type="matrix" values="0 0 0 0 0 0 0 0 0 0 0 0 0 0 0 0 0 0 0.25 0"/>
<feBlend mode="normal" in2="BackgroundImageFix" result="effect1_dropShadow_7_17"/>
<feBlend mode="normal" in="SourceGraphic" in2="effect1_dropShadow_7_17" result="shape"/>
</filter>
</defs>
</svg>
